<?xml version="1.0" standalone="no"?>
<!DOCTYPE svg PUBLIC "-//W3C//DTD SVG 1.1//EN" "http://www.w3.org/Graphics/SVG/1.1/DTD/svg11.dtd" >
<svg xmlns="http://www.w3.org/2000/svg">
<metadata>Generated by IcoMoon</metadata>
<defs>
<font id="icomoon" horiz-adv-x="1024">
<font-face units-per-em="1024" ascent="960" descent="-64" />
<missing-glyph horiz-adv-x="1024" />
<glyph unicode="&#x20;" horiz-adv-x="512" d="" />
<glyph unicode="&#x78;" glyph-name="close" d="M515.584 481.149l176.794 176.128c10.75 10.67 25.559 17.264 41.907 17.264s31.157-6.594 41.911-17.268l-0.004 0.004c10.711-10.664 17.339-25.422 17.339-41.728s-6.628-31.064-17.337-41.726l-176.847-176.13 172.237-171.52c23.142-23.040 23.142-60.416 0-83.405-23.142-23.040-60.672-23.040-83.814 0l-172.186 171.52-179.405-178.637c-23.142-23.040-60.672-23.040-83.814 0-10.724 10.659-17.361 25.418-17.361 41.728s6.637 31.069 17.358 41.725l0.003 0.003 179.354 178.586-183.91 183.194c-10.711 10.664-17.339 25.422-17.339 41.728s6.628 31.064 17.337 41.726l0.002 0.002c10.744 10.682 25.555 17.285 41.907 17.285s31.163-6.603 41.91-17.288l-0.003 0.003 183.962-183.194zM515.584 481.149l176.794 176.128c10.75 10.67 25.559 17.264 41.907 17.264s31.157-6.594 41.911-17.268l-0.004 0.004c10.711-10.664 17.339-25.422 17.339-41.728s-6.628-31.064-17.337-41.726l-176.847-176.13 172.237-171.52c23.142-23.040 23.142-60.416 0-83.405-23.142-23.040-60.672-23.040-83.814 0l-172.186 171.52-179.405-178.637c-23.142-23.040-60.672-23.040-83.814 0-10.724 10.659-17.361 25.418-17.361 41.728s6.637 31.069 17.358 41.725l0.003 0.003 179.354 178.586-183.91 183.194c-10.711 10.664-17.339 25.422-17.339 41.728s6.628 31.064 17.337 41.726l0.002 0.002c10.744 10.682 25.555 17.285 41.907 17.285s31.163-6.603 41.91-17.288l-0.003 0.003 183.962-183.194z" />
<glyph unicode="&#xe900;" glyph-name="account" d="M512-53.669c-267.703 0-485.669 217.966-485.669 485.669s217.966 485.669 485.669 485.669c267.703 0 485.669-217.966 485.669-485.669s-217.966-485.669-485.669-485.669zM512 859.154c-235.52 0-427.154-191.634-427.154-427.154s191.634-427.154 427.154-427.154 427.154 191.634 427.154 427.154-191.634 427.154-427.154 427.154zM516.974 381.093c-117.321 0-212.699 95.378-212.699 212.699s95.378 212.699 212.699 212.699 212.699-95.378 212.699-212.699-95.378-212.699-212.699-212.699zM516.974 747.977c-85.138 0-154.185-69.047-154.185-154.185s69.047-154.185 154.185-154.185c85.138 0 154.185 69.047 154.185 154.185s-69.047 154.185-154.185 154.185zM186.075 81.499c-4.389 0-8.777 0.878-13.166 3.218-14.336 7.314-20.187 24.869-13.166 39.205 68.169 136.046 205.093 220.599 356.937 220.599 148.626 0 283.794-81.627 353.134-213.285 7.607-14.336 2.048-31.89-12.288-39.497s-31.89-2.048-39.497 12.288c-59.392 112.347-174.665 182.272-301.641 182.272-129.609 0-246.638-72.265-304.859-188.416-4.389-10.533-14.629-16.384-25.454-16.384z" />
<glyph unicode="&#xe901;" glyph-name="file" d="M846.694 535.552h-293.734c-14.472 0.228-26.116 12.014-26.116 26.518 0 0.163 0.001 0.326 0.004 0.488v-0.024 292.966h-296.96c-12.513-0.718-22.463-10.757-23.038-23.242l-0.002-0.054v-788.685c0-11.981 11.264-23.296 23.040-23.296h593.715c11.827 0 23.040 11.315 23.040 23.296v65.536h-384.512c-42.291 0-75.776 34.97-77.568 76.954v166.042c0 41.984 35.277 76.902 77.568 76.902h384.512v106.65zM550.093 908.698c0.784 0.083 1.693 0.13 2.614 0.13 11.851 0 21.869-7.849 25.139-18.632l0.048-0.186 313.446-289.024c5.53-5.069 8.704-12.288 8.704-19.814v-152.166h29.082c42.24 0 77.517-34.97 77.517-76.902v-166.042c0-41.984-35.277-76.902-77.517-76.902h-29.133v-65.178c0-41.779-34.867-77.005-76.237-77.005h-593.869c-41.37-0.051-76.288 35.174-76.288 76.954v787.866c0 41.728 34.918 77.005 76.237 77.005h317.338c1.024 0 1.946-0.051 2.918-0.154zM579.123 816.538v-227.072h245.862l-245.862 227.021z" />
<glyph unicode="&#xe902;" glyph-name="calendar" d="M94.033 705.94v-146.33h835.936v146.33h-114.001v-35.128c0-20.977-17.006-37.982-37.982-37.982s-37.982 17.006-37.982 37.982v35.128h-456.005v-35.128c0-20.977-17.006-37.982-37.982-37.982s-37.982 17.006-37.982 37.982v0 35.128h-114.001zM74.493 774.384c5.2 3.034 11.447 4.826 18.112 4.831h115.43v35.128c0 20.977 17.006 37.982 37.982 37.982s37.982-17.006 37.982-37.982v0-35.128h456.005v35.128c0 20.977 17.006 37.982 37.982 37.982s37.982-17.006 37.982-37.982v-35.128h115.429c6.587 0 12.789-1.756 18.113-4.831 5.328 3.025 11.704 4.808 18.497 4.808 20.977 0 37.982-17.006 37.982-37.982 0-0.031 0-0.062 0-0.093v0.004-729.015c0-0.009 0-0.022 0-0.033 0-20.977-17.006-37.982-37.982-37.982-6.792 0-13.169 1.783-18.687 4.907l0.189-0.099c-5.182-3.002-11.402-4.775-18.035-4.775-0.027 0-0.055 0-0.082 0h-876.768c-0.007 0-0.018 0-0.026 0-20.22 0-36.61 16.391-36.61 36.61 0 0.483 0.009 0.963 0.028 1.44l-0.002-0.068v729.015c0 0.009 0 0.022 0 0.033 0 20.977 17.006 37.982 37.982 37.982 6.792 0 13.169-1.783 18.687-4.907l-0.189 0.099zM94.033 486.443v-439.099h835.936v439.099h-835.936z" />
<glyph unicode="&#xe903;" glyph-name="search" d="M878.49 80l-208.896 209.101c42.803 51.405 68.608 117.555 68.608 189.44 0 163.43-132.915 296.346-296.346 296.346s-296.346-132.915-296.346-296.346c0.205-163.43 133.12-296.346 296.346-296.346 63.283 0 122.061 20.070 170.394 54.067l211.149-211.149 55.091 54.886zM223.54 478.541c0 120.422 97.894 218.522 218.522 218.522 120.422 0 218.522-97.894 218.522-218.522 0-120.422-97.894-218.522-218.522-218.522s-218.522 98.099-218.522 218.522z" />
<glyph unicode="&#xe904;" glyph-name="business" horiz-adv-x="1008" d="M945.1 289.445h-885.321c-34.816 0-62.903 28.087-62.903 62.903v319.195c0 34.816 28.087 62.903 62.903 62.903h885.321c34.816 0 62.903-28.087 62.903-62.903v-319.195c0-34.816-28.087-62.903-62.903-62.903zM59.778 675.932c-2.341 0-4.389-2.048-4.389-4.389v-319.195c0-2.341 2.048-4.389 4.389-4.389h885.321c2.341 0 4.389 2.048 4.389 4.389v319.195c0 2.341-2.048 4.389-4.389 4.389h-885.321zM914.087-16h-822.711c-34.816 0-62.903 28.087-62.903 62.903v271.799c0 16.091 13.166 29.257 29.257 29.257h890.002c16.091 0 29.257-13.166 29.257-29.257v-271.799c0-34.816-28.087-62.903-62.903-62.903zM86.988 289.445v-242.542c0-2.341 2.048-4.389 4.389-4.389h822.711c2.341 0 4.389 2.048 4.389 4.389v242.542h-831.488zM557.735 200.503h-110.299c-16.091 0-29.257 13.166-29.257 29.257s13.166 29.257 29.257 29.257h110.299c16.091 0 29.257-13.166 29.257-29.257s-13.166-29.257-29.257-29.257zM660.428 675.932h-315.685c-16.091 0-29.257 13.166-29.257 29.257 0 103.278 83.968 187.246 187.246 187.246 102.985 0 186.953-83.968 186.953-187.246 0-16.091-13.166-29.257-29.257-29.257zM377.218 734.446h250.441c-13.166 57.051-64.366 99.474-125.221 99.474-60.562 0-111.762-42.423-125.221-99.474z" />
<glyph unicode="&#xe905;" glyph-name="home" d="M818.322-63.999h-185.198c-16.091 0-29.257 13.166-29.257 29.257v283.502h-180.809v-283.502c0-16.091-13.166-29.257-29.257-29.257h-185.198c-16.091 0-29.257 13.166-29.257 29.257v468.114h-132.535c-11.995 0-23.113 7.607-27.209 18.725-4.389 11.41-1.17 24.283 7.899 32.183l466.359 416.914c11.118 9.947 27.794 9.947 38.912 0l466.651-416.622c9.070-8.192 12.288-20.773 7.899-32.183s-15.214-18.725-27.209-18.725h-132.535v-468.114c0-16.384-13.166-29.55-29.257-29.55zM662.382-5.484h126.683v468.114c0 16.091 13.166 29.257 29.257 29.257h85.138l-389.998 348.16-389.998-348.16h85.138c16.091 0 29.257-13.166 29.257-29.257v-468.114h126.683v283.502c0 16.091 13.166 29.257 29.257 29.257h239.323c16.091 0 29.257-13.166 29.257-29.257v-283.502z" />
<glyph unicode="&#xe906;" glyph-name="citizen" d="M512.084 369.883c-150.089 0-272.384 122.295-272.384 272.384s122.295 272.384 272.384 272.384c150.089 0 272.384-122.295 272.384-272.384s-122.295-272.384-272.384-272.384zM512.084 856.137c-117.906 0-213.87-95.963-213.87-213.87s95.963-213.87 213.87-213.87 213.87 95.963 213.87 213.87-95.963 213.87-213.87 213.87zM979.613-64h-935.058c-9.947 0-19.017 4.974-24.576 13.166s-6.144 18.725-2.341 27.794c86.601 196.023 280.576 322.706 494.446 322.706s407.845-126.683 494.153-322.706c4.096-9.070 3.218-19.602-2.341-27.794s-14.336-13.166-24.283-13.166zM91.951-5.486h840.558c-84.846 151.259-245.175 246.638-420.425 246.638s-335.579-95.378-420.133-246.638z" />
<glyph unicode="&#xe907;" glyph-name="external-big" d="M833.829-34.743h-650.094c-86.016 0-155.941 69.925-155.941 155.941v650.386c0 86.016 69.925 155.941 155.941 155.941h165.595c16.091 0 29.257-13.166 29.257-29.257s-13.166-29.257-29.257-29.257h-165.595c-53.833 0-97.426-43.593-97.426-97.426v-650.386c0-53.833 43.593-97.426 97.426-97.426h650.094c53.833 0 97.426 43.593 97.426 97.426v184.027c0 16.091 13.166 29.257 29.257 29.257s29.257-13.166 29.257-29.257v-184.027c0-86.016-69.925-155.941-155.941-155.941zM960.512 519.387c-16.091 0-29.257 13.166-29.257 29.257v320.366h-318.318c-16.091 0-29.257 13.166-29.257 29.257s13.166 29.257 29.257 29.257h347.575c16.091 0 29.257-13.166 29.257-29.257v-349.623c0-16.091-13.166-29.257-29.257-29.257zM351.378 256.951c-7.607 0-14.921 2.926-20.773 8.485-11.41 11.41-11.41 29.842 0 41.253l582.802 582.802c11.41 11.41 29.842 11.41 41.253 0s11.41-29.842 0-41.253l-582.51-582.802c-5.851-5.559-13.166-8.485-20.773-8.485z" />
<glyph unicode="&#xe908;" glyph-name="external" d="M665.307 199.314h-315.977c-50.030 0-90.697 40.667-90.697 90.697v315.977c0 50.030 40.667 90.697 90.697 90.697h80.457c16.091 0 29.257-13.166 29.257-29.257s-13.166-29.257-29.257-29.257h-80.457c-17.847 0-32.183-14.336-32.183-32.183v-315.977c0-17.847 14.336-32.183 32.183-32.183h315.977c17.847 0 32.183 14.336 32.183 32.183v89.234c0 16.091 13.166 29.257 29.257 29.257s29.257-13.166 29.257-29.257v-89.234c0-50.030-40.667-90.697-90.697-90.697zM726.747 468.187c-16.091 0-29.257 13.166-29.257 29.257v140.727h-139.557c-16.091 0-29.257 13.166-29.257 29.257s13.166 29.257 29.257 29.257h168.814c16.091 0 29.257-13.166 29.257-29.257v-169.984c0-16.091-13.166-29.257-29.257-29.257zM430.958 340.919c-7.607 0-14.921 2.926-20.773 8.485-11.41 11.41-11.41 29.842 0 41.253l282.917 282.917c11.41 11.41 29.842 11.41 41.253 0s11.41-29.842 0-41.253l-282.917-282.917c-5.559-5.559-12.873-8.485-20.48-8.485z" />
<glyph unicode="&#xe909;" glyph-name="official" d="M559.982 110.153h-95.963c-16.091 0-29.257 13.166-29.257 29.257s13.166 29.257 29.257 29.257h95.963c16.091 0 29.257-13.166 29.257-29.257s-13.166-29.257-29.257-29.257zM877.714 38.181h-731.429c-76.069 0-137.801 63.488-137.801 141.312v31.89c0 16.091 13.166 29.257 29.257 29.257h948.517c16.091 0 29.257-13.166 29.257-29.257v-31.89c0-77.824-61.733-141.312-137.801-141.312zM66.999 182.126v-2.633c0-45.641 35.694-82.798 79.287-82.798h731.429c43.593 0 79.287 37.157 79.287 82.798v2.633h-890.002zM909.605 182.126h-795.209c-16.091 0-29.257 13.166-29.257 29.257v457.874c0 33.353 26.331 60.562 58.514 60.562h736.695c32.183 0 58.514-27.209 58.514-60.562v-457.874c0-16.091-13.166-29.257-29.257-29.257zM143.653 240.64h736.695v428.617c0 0.878-0.293 1.755-0.585 2.048h-735.525c-0.293-0.293-0.585-0.878-0.585-2.048v-428.617zM202.752 495.47c-12.581 0-24.283 8.192-28.087 20.773-1.463 4.681-3.511 11.118-1.17 95.086 0.293 15.799 13.458 28.379 29.257 28.379h147.456c16.091 0 29.257-13.166 29.257-29.257s-13.166-29.257-29.257-29.257h-118.784c-0.293-23.406-0.585-44.763 0-50.907 2.926-14.629-5.559-29.257-20.187-33.646-2.926-0.878-5.559-1.17-8.485-1.17zM231.424 529.701c0 0 0 0 0 0v0zM230.839 533.211c0 0 0 0 0 0s0 0 0 0z" />
<glyph unicode="&#xe90a;" glyph-name="context-help" d="M512-52.48c-258.315 0-468.48 210.165-468.48 468.48s210.165 468.48 468.48 468.48c258.315 0 468.48-210.165 468.48-468.48s-210.165-468.48-468.48-468.48zM512 813.32c-219.179 0-397.32-178.141-397.32-397.32s178.141-397.32 397.32-397.32c219.179 0 397.32 178.141 397.32 397.32s-178.141 397.32-397.32 397.32zM348.801 513.018c0 21.111 6.642 42.222 20.164 63.807s33.208 39.377 59.063 53.609 55.981 21.348 90.614 21.348c32.024 0 60.488-5.932 84.918-17.792 24.671-11.86 43.41-27.99 56.928-48.391 13.285-20.401 20.164-42.459 20.164-66.416 0-18.739-3.797-35.343-11.386-49.338-7.59-14.232-16.604-26.329-27.28-36.768-10.435-10.198-29.415-27.517-56.691-51.947-7.59-6.879-13.522-12.807-18.029-18.029s-7.826-9.962-10.198-14.232c-2.135-4.27-4.034-8.541-5.218-13.048-1.188-4.27-3.082-11.86-5.454-22.773-4.27-23.010-17.314-34.633-39.377-34.633-11.623 0-21.111 3.797-28.938 11.386s-11.86 18.739-11.86 33.445c0 18.502 2.846 34.633 8.541 48.391 5.691 13.522 13.285 25.618 23.010 35.817 9.488 10.198 22.299 22.536 38.426 36.768 14.232 12.334 24.43 21.822 30.599 27.99s11.623 13.285 15.894 21.111c4.27 7.826 6.406 16.13 6.406 25.145 0 17.792-6.642 32.734-19.686 44.831s-30.126 18.266-51 18.266c-24.43 0-42.222-6.169-53.846-18.502s-21.348-30.362-29.174-54.319c-7.59-24.908-21.822-37.478-42.696-37.478-12.334 0-22.773 4.27-31.31 13.048-8.304 9.014-12.57 18.502-12.57 28.701zM510.816 149.382c-13.522 0-25.382 4.27-35.343 13.048s-15.179 20.874-15.179 36.768c0 13.995 4.981 25.618 14.706 35.106s21.585 14.232 35.817 14.232c13.995 0 25.618-4.744 35.106-14.232s14.232-21.348 14.232-35.106c0-15.42-4.981-27.754-14.942-36.531-9.962-9.014-21.348-13.285-34.396-13.285z" />
<glyph unicode="&#xe90b;" glyph-name="arrow-up" d="M116.191 288.203c0-19.595 7.534-38.447 21.859-53.515 29.392-29.392 76.876-29.392 106.283 0l267.573 267.573 267.573-267.573c29.392-29.392 76.876-29.392 106.283 0s29.392 76.876 0 106.283l-321.087 320.341c-29.392 29.392-76.876 29.392-106.283 0l-321.087-320.341c-13.564-14.325-21.098-33.159-21.098-52.754z" />
<glyph unicode="&#xe90c;" glyph-name="success" d="M512-52.48c-258.315 0-468.48 210.165-468.48 468.48s210.165 468.48 468.48 468.48c258.315 0 468.48-210.165 468.48-468.48s-210.165-468.48-468.48-468.48zM512 813.32c-219.179 0-397.32-178.141-397.32-397.32s178.141-397.32 397.32-397.32c219.179 0 397.32 178.141 397.32 397.32s-178.141 397.32-397.32 397.32zM470.014 336.062l232.46 225.344c16.13 15.657 41.986 15.657 58.116 0s16.13-40.798 0-56.218l-261.402-253.571c-8.063-7.826-18.502-11.623-28.938-11.623s-21.111 3.797-28.938 11.623l-145.643 140.899c-16.13 15.657-16.13 40.798 0 56.218 16.13 15.657 41.986 15.657 58.116 0l116.232-112.672z" />
<glyph unicode="&#xe90d;" glyph-name="arrow-right" d="M352.203 843.809c-19.595 0-38.447-7.534-53.515-21.859-29.392-29.392-29.392-76.876 0-106.283l267.573-267.573-267.573-267.573c-29.392-29.392-29.392-76.876 0-106.283s76.876-29.392 106.283 0l320.341 321.087c29.392 29.392 29.392 76.876 0 106.283l-320.341 321.087c-14.325 13.564-33.159 21.098-52.754 21.098z" />
<glyph unicode="&#xe90e;" glyph-name="arrow-left" d="M671.797 843.809c19.595 0 38.447-7.534 53.515-21.859 29.392-29.392 29.392-76.876 0-106.283l-267.573-267.573 267.573-267.573c29.392-29.392 29.392-76.876 0-106.283s-76.876-29.392-106.283 0l-320.341 321.087c-29.392 29.392-29.392 76.876 0 106.283l320.341 321.087c14.325 13.564 33.159 21.098 52.754 21.098z" />
<glyph unicode="&#xe90f;" glyph-name="info" d="M512-52.48c-258.315 0-468.48 210.165-468.48 468.48s210.165 468.48 468.48 468.48c258.315 0 468.48-210.165 468.48-468.48s-210.165-468.48-468.48-468.48zM512 813.32c-219.179 0-397.32-178.141-397.32-397.32s178.141-397.32 397.32-397.32c219.179 0 397.32 178.141 397.32 397.32s-178.141 397.32-397.32 397.32zM512 149.856c-23.72 0-42.933 19.213-42.933 42.933v242.426c0 23.72 19.213 42.933 42.933 42.933s42.933-19.213 42.933-42.933v-242.662c0-23.483-19.213-42.696-42.933-42.696zM558.62 627.247c6.082-25.755-9.867-51.561-35.622-57.644s-51.561 9.867-57.644 35.622c-6.082 25.755 9.867 51.561 35.622 57.644s51.561-9.867 57.644-35.622z" />
<glyph unicode="&#xe910;" glyph-name="alert" d="M929.286-37.222h-834.426c-33.388 0-63.196 17.17-79.651 46.026-16.692 28.857-16.455 63.196 0 91.812l417.095 722.58c0 0 0 0 0 0 16.692 28.616 46.263 45.786 79.41 46.026 0 0 0.237 0 0.237 0 33.147 0 62.959-17.17 79.651-45.786l417.095-722.82c16.692-28.616 16.692-62.959 0-91.812-16.214-28.857-46.026-46.026-79.41-46.026zM494.307 787.425l-417.095-722.58c-5.246-9.062-1.906-17.17 0-20.272 1.67-3.098 7.156-10.254 17.647-10.254h834.426c10.732 0 15.978 7.156 17.647 10.254s5.246 11.21 0 20.272l-417.095 722.58c-5.486 9.062-14.308 10.254-17.884 10.254 0 0 0 0 0 0-3.576 0-12.402-1.192-17.647-10.254zM511.481 229.87c-19.794 0-35.772 15.978-35.772 35.772v309.779c0 19.794 15.978 35.772 35.772 35.772s35.772-15.978 35.772-35.772v-309.779c0-19.794-15.978-35.772-35.772-35.772zM544.628 155.465c0-18.701-15.16-33.862-33.862-33.862s-33.862 15.16-33.862 33.862c0 18.701 15.16 33.862 33.862 33.862s33.862-15.16 33.862-33.862z" />
<glyph unicode="&#xe911;" glyph-name="arrow-left-thin" d="M743.277-43.996c7.607 0 14.921 2.926 20.773 8.485 11.41 11.41 11.41 29.842 0 41.253l-442.368 442.368 442.368 442.075c11.41 11.41 11.41 29.842 0 41.253s-29.842 11.41-41.253 0l-462.848-462.848c-11.41-11.41-11.41-29.842 0-41.253l462.555-462.848c5.851-5.559 13.166-8.485 20.773-8.485z" />
<glyph unicode="&#xe912;" glyph-name="arrow-right-thin" d="M280.723-43.996c-7.607 0-14.921 2.926-20.773 8.485-11.41 11.41-11.41 29.842 0 41.253l442.368 442.368-442.368 442.075c-11.41 11.41-11.41 29.842 0 41.253s29.842 11.41 41.253 0l462.848-462.848c11.41-11.41 11.41-29.842 0-41.253l-462.555-462.848c-5.851-5.559-13.166-8.485-20.773-8.485z" />
<glyph unicode="&#xe913;" glyph-name="facebook" d="M743.131 894.263h-462.263c-127.561 0-231.131-103.57-231.131-231.131v-462.263c0-127.561 103.57-231.131 231.131-231.131h462.263c127.561 0 231.131 103.57 231.131 231.131v462.263c0 127.561-103.57 231.131-231.131 231.131zM636.343 432h-85.723c0-129.317 0-289.061 0-289.061h-115.566c0 0 0 157.989 0 289.061h-57.929v115.566h57.344v52.37c0 47.397 22.528 121.125 121.71 121.125l89.234-0.293v-98.889c0 0-54.418 0-64.951 0s-25.454-5.266-25.454-27.794v-46.226h91.867l-10.533-115.858z" />
<glyph unicode="&#xe914;" glyph-name="twitter" d="M743.131 894.263h-462.263c-127.561 0-231.131-103.57-231.131-231.131v-462.263c0-127.561 103.57-231.131 231.131-231.131h462.263c127.561 0 231.131 103.57 231.131 231.131v462.263c0 127.561-103.57 231.131-231.131 231.131zM741.669 547.858c0.293-4.974 0.293-9.947 0.293-15.214 0-154.185-119.077-332.069-337.335-332.069-66.999 0-129.317 19.31-181.687 52.37 9.362-1.17 18.725-1.755 28.379-1.755 55.589 0 106.789 18.725 147.163 50.030-51.785 0.878-95.671 34.816-110.885 81.042 7.314-1.463 14.629-2.048 22.235-2.048 10.825 0 21.358 1.463 31.305 4.096-54.126 10.825-95.086 57.929-95.086 114.395 0 0.585 0 0.878 0 1.463 16.091-8.777 34.231-14.043 53.833-14.629-31.89 21.065-52.663 56.759-52.663 97.134 0 21.358 5.851 41.545 16.091 58.807 58.514-70.51 145.701-117.029 244.297-122.002-2.048 8.485-2.926 17.554-2.926 26.624 0 64.366 52.955 116.736 118.491 116.736 34.231 0 64.951-14.043 86.601-36.864 26.917 5.266 52.37 14.921 75.191 28.379-8.777-27.209-27.794-50.030-52.078-64.658 23.991 2.926 46.811 9.070 68.169 18.432-16.091-23.113-35.986-43.593-59.392-60.27z" />
<glyph unicode="&#xe915;" glyph-name="instagram" d="M729.673 596.718c-4.974 13.166-11.118 22.235-20.773 32.183-9.655 9.655-19.017 15.799-32.183 20.773-9.947 3.803-24.576 8.485-51.785 9.655-29.55 1.463-38.327 1.755-112.933 1.755s-83.383-0.293-112.933-1.755c-27.209-1.17-42.13-5.851-51.785-9.655-13.166-4.974-22.235-11.118-32.183-20.773s-15.799-19.017-20.773-32.183c-3.803-9.947-8.485-24.576-9.655-51.785-1.463-29.55-1.755-38.327-1.755-112.933s0.293-83.383 1.755-112.933c1.17-27.209 5.851-42.13 9.655-51.785 4.974-13.166 11.118-22.235 20.773-32.183s19.017-15.799 32.183-20.773c9.947-3.803 24.576-8.485 51.785-9.655 29.55-1.463 38.327-1.755 112.933-1.755s83.383 0.293 112.933 1.755c27.209 1.17 42.13 5.851 51.785 9.655 13.166 4.974 22.235 11.118 32.183 20.773 9.655 9.655 15.799 19.017 20.773 32.183 3.803 9.947 8.485 24.576 9.655 51.785 1.463 29.55 1.755 38.327 1.755 112.933s-0.293 83.383-1.755 112.933c-1.17 27.209-5.851 41.838-9.655 51.785zM512 288.64c-79.287 0-143.36 64.073-143.36 143.36s64.073 143.36 143.36 143.36c79.287 0 143.36-64.073 143.36-143.36s-64.073-143.36-143.36-143.36zM661.211 547.566c-18.432 0-33.646 14.921-33.646 33.646 0 18.432 14.921 33.646 33.646 33.646 18.432 0 33.646-14.921 33.646-33.646-0.293-18.725-15.214-33.646-33.646-33.646zM603.853 446.908c8.232-50.72-26.212-98.511-76.933-106.742s-98.511 26.212-106.742 76.933c-8.232 50.72 26.212 98.511 76.933 106.742s98.511-26.212 106.742-76.933zM743.131 894.263h-462.263c-127.561 0-231.131-103.57-231.131-231.131v-462.263c0-127.561 103.57-231.131 231.131-231.131h462.263c127.561 0 231.131 103.57 231.131 231.131v462.263c0 127.561-103.57 231.131-231.131 231.131zM789.65 316.727c-1.463-29.842-6.144-50.030-12.873-67.877-7.022-18.432-16.677-33.938-32.183-49.445s-31.013-25.161-49.445-32.183c-17.847-7.022-38.034-11.703-67.877-12.873-29.842-1.463-39.205-1.755-115.273-1.755-75.776 0-85.431 0.293-115.273 1.755s-50.030 6.144-67.877 12.873c-18.432 7.022-33.938 16.677-49.445 32.183s-25.161 31.013-32.183 49.445c-7.022 17.847-11.703 38.034-12.873 67.877-1.463 29.842-1.755 39.205-1.755 115.273s0.293 85.431 1.755 115.273c1.463 29.842 6.144 50.030 12.873 67.877 7.022 18.432 16.677 33.938 32.183 49.445s31.013 25.161 49.445 32.183c17.847 7.022 38.034 11.703 67.877 12.873 29.842 1.463 39.205 1.755 115.273 1.755 75.776 0 85.431-0.293 115.273-1.755s50.030-6.144 67.877-12.873c18.432-7.022 33.938-16.677 49.445-32.183s25.161-31.013 32.183-49.445c7.022-17.847 11.703-38.034 12.873-67.877 1.463-29.842 1.755-39.205 1.755-115.273s-0.585-85.431-1.755-115.273z" />
<glyph unicode="&#xe916;" glyph-name="youtube" d="M464.368 360.374l124.368 71.626-124.368 71.626v-143.252zM744 896h-464c-128.131 0-232-103.869-232-232v0-464c0-128.131 103.869-232 232-232v0h464c128.131 0 232 103.869 232 232v0 464c0 128.131-103.869 232-232 232v0zM750.901 431.618s0-77.53-9.839-114.941c-5.72-20.535-21.572-36.379-41.69-41.982l-0.42-0.101c-37.385-9.986-186.95-9.986-186.95-9.986s-149.156 0-186.95 10.25c-20.576 5.727-36.442 21.631-42.013 41.808l-0.1 0.42c-9.839 37.002-9.839 114.912-9.839 114.912s0 77.53 9.839 114.913c5.81 20.585 21.601 36.502 41.681 42.384l0.432 0.108c37.385 9.986 186.95 9.986 186.95 9.986s149.567 0 186.95-10.25c20.578-5.721 36.448-21.628 42.013-41.809l0.1-0.421c10.221-37.385 9.839-115.294 9.839-115.294z" />
<glyph unicode="&#xe917;" glyph-name="flickr" d="M743.131 894.263h-462.263c-127.561 0-231.131-103.57-231.131-231.131v-462.263c0-127.561 103.57-231.131 231.131-231.131h462.263c127.561 0 231.131 103.57 231.131 231.131v462.263c0 127.561-103.57 231.131-231.131 231.131zM340.553 297.125c-75.483 0-136.631 60.27-136.631 134.875 0 74.313 61.147 134.875 136.631 134.875s136.631-60.27 136.631-134.875c0-74.313-61.147-134.875-136.631-134.875zM683.447 297.125c-75.483 0-136.631 60.27-136.631 134.875 0 74.313 61.147 134.875 136.631 134.875s136.631-60.27 136.631-134.875c0-74.313-61.147-134.875-136.631-134.875z" />
<glyph unicode="&#xe918;" glyph-name="license-by" d="M568.759 647.333c0-35.986-29.257-65.243-65.243-65.243s-65.243 29.257-65.243 65.243 29.257 65.243 65.243 65.243c35.986 0 65.243-29.257 65.243-65.243zM435.931 128.896h134.875v216.795h40.667c0 0 0 155.063 0 179.346 0 6.437 0.585 19.31-8.777 28.672s-21.943 8.777-28.672 8.777c-6.729 0-135.168 0-141.897 0s-19.31 0.585-28.672-8.777c-9.362-9.362-8.777-22.235-8.777-28.672 0-24.283 0-179.346 0-179.346h41.253v-216.795zM503.515-60.69c-265.362 0-481.28 215.918-481.28 481.28s215.918 481.28 481.28 481.28 481.28-215.918 481.28-481.28c0-265.362-215.918-481.28-481.28-481.28zM503.515 814.098c-217.088 0-393.509-176.421-393.509-393.509s176.421-393.509 393.509-393.509 393.509 176.713 393.509 393.509c0 217.088-176.421 393.509-393.509 393.509z" />
<glyph unicode="&#xe919;" glyph-name="license-cc" d="M503.515-60.69c-265.362 0-481.28 215.918-481.28 481.28s215.918 481.28 481.28 481.28 481.28-215.918 481.28-481.28-215.918-481.28-481.28-481.28zM503.515 814.098c-217.088 0-393.509-176.421-393.509-393.509s176.421-393.509 393.509-393.509 393.509 176.713 393.509 393.509c0 217.088-176.421 393.509-393.509 393.509zM507.319 420.59c0 91.867 61.147 146.286 138.094 146.286 52.955 0 98.304-19.31 124.928-67.877l-62.903-33.061c-14.629 31.305-39.79 38.034-52.37 38.034-46.519 0-63.195-35.986-63.195-83.675s19.895-83.675 63.195-83.675c25.161 0 45.056 9.362 58.222 40.667l58.514-29.842c-25.161-44.471-70.51-73.728-124.050-73.728-82.798 0.585-140.434 53.541-140.434 146.871zM375.662 274.304c53.248 0 98.889 29.257 124.050 73.728l-58.514 29.842c-13.166-31.305-33.061-40.667-58.222-40.667-43.301 0-63.195 35.986-63.195 83.675s16.677 83.675 63.195 83.675c12.581 0 37.742-6.729 52.37-38.034l62.903 33.061c-26.624 48.567-72.265 67.877-124.928 67.877-76.946 0-138.094-54.418-138.094-146.286-0.293-93.915 57.051-146.871 140.434-146.871z" />
<glyph unicode="&#xe91a;" glyph-name="linkedin" d="M540.957 467.506v1.059c-0.147-0.353-0.441-0.647-0.588-1.059zM744 896h-464c-128.131 0-232-103.869-232-232v0-464c0-128.131 103.869-232 232-232v0h464c128.131 0 232 103.869 232 232v0 464c0 128.131-103.869 232-232 232v0zM379.848 200.765h-103.635v312.054h103.635zM328.014 555.342h-0.647c-34.8 0-57.353 24.053-57.353 53.919 0 30.689 23.229 53.978 58.735 53.978s57.294-23.288 58-53.978c-0.029-29.866-22.494-53.919-58.735-53.919zM753.986 200.765h-103.753v167.011c0 41.966-14.978 70.482-52.537 70.482-28.693 0-45.635-19.325-53.213-37.914-2.287-6.725-3.608-14.473-3.608-22.528 0-0.979 0.019-1.956 0.058-2.925l-0.005 0.139v-174.265h-103.665s1.408 282.717 0 311.997h103.694v-44.227c13.861 21.262 38.382 51.54 93.506 51.54 68.397 0 119.524-44.58 119.524-140.433z" />
<glyph unicode="&#xe91b;" glyph-name="map-marker" d="M511.802-112c0 0 0 0 0 0-10.905 0-21.017 5.948-26.172 15.663-1.388 2.577-144.34 266.871-218.493 379.686-52.541 79.902-82.083 163.771-85.85 242.88-4.164 91.005 26.766 172.097 89.816 234.156 64.041 63.843 149.495 99.135 240.897 99.135s176.857-35.292 240.897-99.333c62.455-62.455 93.584-143.547 89.816-234.552-3.371-80.696-33.111-164.564-86.247-242.682-61.464-89.618-216.708-376.315-218.295-379.289-5.354-9.715-15.267-15.663-26.369-15.663zM512 800.039c-75.342 0-145.926-29.146-198.666-81.885 0 0-0.198-0.198-0.198-0.198-51.352-50.559-75.739-114.203-72.368-188.95 3.173-68.403 29.542-142.16 76.135-212.941 56.705-86.446 149.693-253.586 195.097-336.067 47.585 86.842 147.116 266.474 195.295 336.661 46.196 67.809 73.161 142.952 75.937 211.554 2.974 74.945-21.215 138.987-72.368 190.14-52.938 52.541-123.521 81.687-198.864 81.687zM292.318 739.17v0 0zM511.802 325.778c-108.85 0-197.477 88.627-197.477 197.477s88.627 197.477 197.477 197.477c108.85 0 197.477-88.627 197.477-197.477s-88.428-197.477-197.477-197.477zM511.802 661.25c-76.135 0-137.996-61.86-137.996-137.996s61.86-137.996 137.996-137.996c76.135 0 137.996 61.86 137.996 137.996s-61.86 137.996-137.996 137.996z" />
<glyph unicode="&#xe91c;" glyph-name="midicine" d="M673.997 671.57c-13.722 14.746-27.238 28.058-39.526 39.117 1.434 3.686 2.253 7.578 2.253 11.674v111.411c0 16.998-13.722 30.72-30.72 30.72h-175.514c-16.998 0-30.72-13.722-30.72-30.72v-111.411c0-4.096 0.819-7.782 2.253-11.264-12.288-11.264-26.010-24.576-39.731-39.322-58.163-62.874-87.654-121.037-87.654-172.851v-83.968c0-16.998 13.722-30.72 30.72-30.72s30.72 13.722 30.72 30.72v32.563h364.339v-374.17h-301.056c-16.998 0-30.72-13.722-30.72-30.72s13.722-30.72 30.72-30.72h331.776c16.998 0 30.72 13.722 30.72 30.72v456.090c-0.205 51.814-29.696 109.978-87.859 172.851zM575.283 803.052v-49.152c-1.229 0.205-2.253 0.205-3.482 0.205h-107.52c-1.024 0-2.048 0-3.072-0.205v49.152h114.074zM473.498 691.641h89.088c43.418-34.611 128.819-115.712 137.011-182.886h-363.11c8.192 67.174 93.594 148.275 137.011 182.886zM518.144 389.561c-16.998 0-30.72-13.722-30.72-30.72v-35.635h-35.84c-16.998 0-30.72-13.722-30.72-30.72s13.722-30.72 30.72-30.72h35.84v-35.84c0-16.998 13.722-30.72 30.72-30.72s30.72 13.722 30.72 30.72v35.84h35.635c16.998 0 30.72 13.722 30.72 30.72s-13.722 30.72-30.72 30.72h-35.635v35.635c0 16.998-13.722 30.72-30.72 30.72zM223.232 363.345c-0.205 0-0.205 0-0.41 0-28.058-0.614-54.682-12.083-73.523-31.744-16.998-17.818-26.010-40.55-25.395-63.898l2.662-121.651c0-1.024-0.205-2.253-0.205-3.277 0-1.229 0.205-2.458 0.205-3.482l2.662-121.856c0.819-50.995 46.080-91.955 101.171-91.955 0.614 0 1.229 0 1.843 0 28.058 0.614 54.682 12.083 73.523 31.744 16.998 17.818 26.010 40.55 25.395 63.898l-5.325 250.266c-1.024 51.2-46.899 92.57-102.605 91.955zM193.946 289.209c7.373 7.782 18.432 12.493 30.106 12.698 0.205 0 0.205 0 0.41 0 21.299 0 39.526-14.541 39.936-31.949 0 0 0 0 0-0.205l2.048-94.208-78.848-1.229-2.048 94.618c-0.205 9.216 4.506 16.179 8.397 20.275zM261.325-0.584c-7.578-7.782-18.637-12.493-30.106-12.698-21.504-0.41-39.936 14.131-40.346 31.744l-2.048 94.413 78.848 1.229 2.048-94.618c0.205-9.011-4.506-15.974-8.397-20.070z" />
<glyph unicode="&#xe91d;" glyph-name="traffic" d="M422.739 234.138h-117.952c-17.639 0-31.879-14.24-31.879-31.879s14.24-31.879 31.879-31.879h117.952c17.639 0 31.879 14.24 31.879 31.879s-14.24 31.879-31.879 31.879zM628.464 335.726l-71.622 154.507c-5.1 11.263-16.577 18.49-28.904 18.49h-326.014c-12.114 0-23.165-6.801-28.478-17.639l-77.146-154.931c-22.952-7.438-39.743-29.116-39.743-54.62v-155.994c0-23.803 14.451-44.205 35.067-52.919v-75.659c0-17.639 14.24-31.879 31.879-31.879s31.879 14.24 31.879 31.879v71.196h416.976v-70.771c0-17.639 14.24-31.879 31.879-31.879s31.879 14.24 31.879 31.879v77.146c0 0 0 0 0 0.213 18.277 9.564 30.816 28.691 30.816 50.793v155.994c0 25.078-16.152 46.33-38.467 54.194zM120.315 131.913v143.242h482.859v-143.242h-482.859zM221.477 444.964h285.847l49.094-106.050h-387.647l52.706 106.050zM237.842 201.835c0-19.953-16.176-36.129-36.129-36.129s-36.129 16.176-36.129 36.129c0 19.953 16.176 36.129 36.129 36.129s36.129-16.176 36.129-36.129zM563.856 201.835c0-19.953-16.176-36.129-36.129-36.129s-36.129 16.176-36.129 36.129c0 19.953 16.176 36.129 36.129 36.129s36.129-16.176 36.129-36.129zM969.143 497.458l-71.622 154.718c-5.1 11.263-16.577 18.49-28.904 18.49h-326.014c-12.114 0-23.165-6.801-28.478-17.639l-26.14-52.282c-7.864-15.727-1.488-34.854 14.24-42.718s34.854-1.488 42.718 14.24l17.215 34.641h285.847l49.094-106.050h-246.743c-17.639 0-31.879-14.24-31.879-31.879s14.24-31.879 31.879-31.879h293.711v-143.242h-211.25c-17.639 0-31.879-14.24-31.879-31.879s14.24-31.879 31.879-31.879h180.221v-70.983c0-17.639 14.24-31.879 31.879-31.879s31.879 14.24 31.879 31.879v77.146c0 0.213 0 0.425 0 0.637 18.277 9.776 30.816 29.116 30.816 51.432v154.507c0 25.078-15.939 46.543-38.467 54.62zM904.323 363.566c0-19.953-16.176-36.129-36.129-36.129s-36.129 16.176-36.129 36.129c0 19.953 16.176 36.129 36.129 36.129s36.129-16.176 36.129-36.129zM122.441 470.042c0 15.090-10.414 27.628-24.228 31.029v125.816h336.853c17.639 0 31.879 14.24 31.879 31.879s-14.24 31.879-31.879 31.879h-290.948l45.268 90.961h276.921c17.639 0 31.879 14.24 31.879 31.879s-14.24 31.879-31.879 31.879h-296.899c-12.114 0-23.165-6.801-28.478-17.639l-69.921-140.48c-21.465-7.864-36.555-28.478-36.555-52.706v-140.267c0-31.029 25.078-56.107 56.107-56.107 17.639 0 31.879 14.24 31.879 31.879zM202.562 562.703c0-18.193-14.748-32.941-32.941-32.941s-32.941 14.748-32.941 32.941c0 18.193 14.748 32.941 32.941 32.941s32.941-14.748 32.941-32.941z" />
<glyph unicode="&#xe91e;" glyph-name="water" d="M591.324 215.994c17.651 0 31.9 14.249 31.9 31.9v253.073h41.896c17.651 0 31.9 14.249 31.9 31.9s-14.249 31.9-31.9 31.9h-41.896v78.687h41.896c17.651 0 31.9 14.249 31.9 31.9s-14.249 31.9-31.9 31.9h-41.896v76.56h105.27l1.063-295.606c0-17.651 14.249-31.9 31.9-31.9 0 0 0 0 0 0 17.651 0 31.9 14.461 31.9 31.9l-1.063 327.506c0 17.651-14.249 31.9-31.9 31.9h-169.070c-17.651 0-31.9-14.249-31.9-31.9v-567.819c0-17.651 14.249-31.9 31.9-31.9zM1001.132 401.226c-17.651 0-31.9-14.249-31.9-31.9 0-48.276-39.343-87.619-87.831-87.619-48.276 0-87.619 39.343-87.619 87.619 0 17.651-14.249 31.9-31.9 31.9s-31.9-14.249-31.9-31.9c0-83.577 67.84-151.419 151.419-151.419s151.631 67.84 151.631 151.419c0 17.651-14.249 31.9-31.9 31.9zM265.52 275.753c27.647-36.153 71.243-59.759 120.369-59.759 83.577 0 151.419 67.84 151.419 151.419 0 17.651-14.249 31.9-31.9 31.9s-31.9-14.249-31.9-31.9c0-48.276-39.343-87.619-87.619-87.619s-87.619 39.343-87.619 87.619c0 1.489-0.213 2.977-0.426 4.466-1.276 16.376-15.1 29.348-31.687 29.348-17.651 0-31.9-14.249-31.9-31.9 0-48.276-39.343-87.619-87.619-87.619s-87.619 39.343-87.619 87.619c0 17.651-14.249 31.9-31.9 31.9s-31.9-14.249-31.9-31.9c0-83.577 67.84-151.419 151.419-151.419 48.063 0 91.021 22.543 118.88 57.846zM882.039 165.804c-17.651 0-31.9-14.249-31.9-31.9 0-48.276-39.343-87.619-87.619-87.619-44.66 0-81.664 33.814-86.98 76.986 0.213 3.403 0.426 7.018 0.426 10.633 0 17.651-14.249 31.9-31.9 31.9-0.213 0-0.426 0-0.426 0-0.213 0-0.426 0-0.426 0-17.651 0-31.9-14.249-31.9-31.9 0-3.616 0.213-7.018 0.426-10.633-5.317-43.384-42.32-76.986-86.98-76.986-48.276 0-87.619 39.343-87.619 87.619 0 1.489-0.213 2.977-0.426 4.466-1.276 16.376-15.1 29.348-31.687 29.348-17.651 0-31.9-14.249-31.9-31.9 0-48.276-39.343-87.619-87.619-87.619s-87.619 39.343-87.619 87.619c0 17.651-14.249 31.9-31.9 31.9s-31.9-14.249-31.9-31.9c0-83.577 67.84-151.419 151.419-151.419 48.063 0 91.021 22.543 118.88 57.846 27.647-36.153 71.243-59.759 120.369-59.759 48.276 0 91.234 22.756 118.88 57.846 27.647-35.303 70.817-57.846 119.093-57.846 83.577 0 151.419 67.84 151.419 151.419-0.213 17.651-14.461 31.9-32.113 31.9z" />
<glyph unicode="&#xe91f;" glyph-name="weather" d="M1014.685 274.739c-5.503 15.451-16.086 33.231-27.092 52.28-15.874 26.881-37.674 63.921-37.040 85.086 0.424 16.933 2.54 28.574 4.445 38.945 2.963 16.298 6.35 34.5-5.291 53.338 1.058 2.751 2.328 6.562 3.599 9.736 3.387 8.466 7.832 20.107 12.276 35.135 12.276 42.119 5.926 80.006-0.846 120.010-1.058 6.562-2.328 13.123-3.387 20.107-1.27 7.62-2.117 15.028-3.175 22.012-4.868 37.252-9.525 72.387-44.024 95.034-7.408 4.868-8.89 7.408-11.217 11.217-6.984 11.007-16.298 21.8-37.886 25.611-15.662 2.751-29.844-1.482-45.082-6.138-20.107-6.138-44.872-13.758-82.122-6.773-37.464 6.984-75.562 9.101-106.252 10.795-15.662 0.846-34.711 1.905-42.119 3.387-19.261 12.699-38.733 11.217-50.163 5.715-1.482-0.635-2.963-1.482-4.445-2.54-13.123-9.101-37.674-13.546-46.776-11.429-2.751 3.809-6.562 12.911-8.043 34.5 0 0.846 0 1.482 0 2.117-0.212 6.138-0.635 20.319-13.546 30.902-13.334 11.007-30.267 9.101-40.215 8.043-11.007-1.058-26.881-3.599-51.009-7.408-75.138-12.065-91.647-19.473-128.264-39.156-12.911-6.984-27.727-12.699-44.872-19.261-22.224-8.678-50.163-19.473-84.451-37.040l-1.905-1.058c-50.163-25.611-80.43-41.061-84.239-88.049-1.27-15.028 1.482-29.632 3.809-42.543 1.482-8.043 4.233-23.282 2.328-26.669-17.779-22.224-24.975-55.454-17.779-81.064 4.657-16.721 15.028-28.997 29.42-34.923 0.212-3.175 0.212-8.466-0.212-15.662-1.058-19.049 0.424-55.454 1.482-82.122 0.424-8.254 0.635-15.451 0.635-19.684 0.212-12.276 5.291-24.764 13.123-44.024 3.387-8.254 9.525-22.859 10.795-29.844-4.233-11.641-5.715-15.028-7.196-18.837l-0.635-1.693c-2.54-6.35-7.62-25.823 14.604-41.273 3.175-2.117 7.196-4.657 12.699-7.832 8.254-4.657 19.473-10.371 34.711-17.991 15.662-7.832 34.711-1.27 42.543 14.392s1.27 34.711-14.392 42.543c-9.313 4.657-16.298 8.254-21.8 11.007 0.212 0.424 0.424 0.846 0.424 1.482 7.832 21.378-2.328 46.141-13.123 72.175-2.963 7.408-7.62 18.203-8.466 22.436-0.212 4.657-0.424 11.217-0.846 19.684-0.846 22.436-2.54 60.11-1.693 76.196 1.058 20.531 3.175 57.782-31.749 74.926 0 5.503 1.905 14.604 6.773 20.742 19.896 24.975 14.604 55.454 10.583 77.467-1.693 9.948-3.387 19.473-2.963 26.457 0.846 9.736 0.846 11.429 49.739 36.405l2.117 1.058c31.325 16.086 56.301 25.823 78.313 34.289 19.049 7.408 35.558 13.758 51.856 22.648 29.844 16.086 39.791 21.589 108.157 32.383 12.488 1.905 24.341 3.809 33.653 5.291 3.175-19.896 9.948-42.119 26.669-57.994 28.362-27.092 82.122-16.086 113.66-0.212 13.546-7.62 33.231-8.678 68.788-10.795 28.786-1.693 64.555-3.599 98.209-9.736 52.28-9.736 88.261 1.27 111.966 8.466 4.233 1.27 9.525 2.963 13.123 3.599 5.291-7.832 12.699-16.721 27.727-26.669 9.313-6.138 11.641-17.991 15.874-50.374 1.058-7.408 1.905-15.028 3.387-23.494 1.058-7.196 2.328-13.97 3.387-20.954 5.926-35.558 10.795-63.497 2.54-91.647-3.599-12.276-7.196-21.589-10.371-29.632-7.196-18.203-15.874-40.639 0-64.343-0.212-2.54-1.058-6.773-1.693-10.371-2.117-11.217-4.868-26.669-5.503-48.469-1.058-39.58 23.706-81.912 45.718-119.162 9.525-16.298 18.625-31.537 22.224-41.485 1.058-2.963 1.27-4.657 1.27-5.503-1.482-2.328-8.043-6.562-11.641-8.89-3.809-2.54-8.043-5.291-11.853-8.466 0 0-0.212-0.212-0.212-0.212-13.546-11.429-33.441-37.464-59.898-73.233-3.599-4.868-7.196-9.525-10.371-13.97-0.212-0.212-0.424-0.635-0.635-0.846-22.012-31.325-31.537-69.212-27.092-107.099-15.662 4.657-33.231 12.911-62.015 27.515-42.755 21.378-67.518 17.991-89.53 12.488-2.751-0.635-5.503-1.27-6.773-1.482-12.276-0.846-21.8-4.868-30.267-8.466-9.101-3.809-16.298-6.984-28.786-6.984-17.567-0.212-31.749-14.392-31.537-31.96 0.212-17.356 14.392-31.537 31.749-31.537 0 0 0.212 0 0.212 0 25.399 0.212 42.119 7.408 53.338 12.065 4.021 1.693 8.254 3.599 9.948 3.599 6.562 0.424 12.276 1.905 17.356 3.175 11.429 2.751 20.319 5.080 45.718-7.62 46.776-23.494 72.81-35.77 110.696-38.522 2.117-0.212 5.080-0.424 8.466-0.424 11.007 0 26.669 2.117 36.828 15.874 12.488 16.721 5.715 34.923 1.905 44.66-1.482 3.809-2.963 7.832-3.809 12.065-3.599 23.282 1.905 46.564 15.24 65.825 3.175 4.233 6.562 8.89 10.159 13.758 14.181 19.049 40.427 54.607 49.527 62.227 1.27 1.058 3.809 2.751 6.35 4.233 15.874 9.313 55.454 35.135 36.194 88.472zM387.334 160.021v245.522c0 17.567-14.181 31.749-31.749 31.749s-31.749-14.181-31.749-31.749v-245.522c-13.123-9.736-21.8-25.399-21.8-43.178 0-29.632 23.917-53.549 53.549-53.549s53.549 23.917 53.549 53.549c0 17.779-8.678 33.441-21.8 43.178zM484.485 265.426v354.313c0 71.117-57.782 128.899-128.899 128.899s-128.899-57.782-128.899-128.899v-354.313c-41.485-36.616-65.825-90.166-65.825-145.831 0-107.31 87.414-194.724 194.724-194.724s194.724 87.414 194.724 194.724c0 55.877-24.341 109.215-65.825 145.831zM355.586-11.633c-72.387 0-131.227 58.84-131.227 131.227 0 41.273 19.896 80.641 52.914 105.194 8.043 5.926 12.911 15.451 12.911 25.611v369.341c0 35.982 29.42 65.402 65.402 65.402s65.402-29.42 65.402-65.402v-369.341c0-10.159 4.868-19.473 12.911-25.611 33.231-24.552 52.914-63.921 52.914-105.194 0-72.387-58.84-131.227-131.227-131.227z" />
<glyph unicode="&#xe920;" glyph-name="warning-other" d="M512 676.326c-16.998 0-30.72-13.722-30.72-30.72v-287.334c0-16.998 13.722-30.72 30.72-30.72s30.72 13.722 30.72 30.72v287.334c0 16.998-13.722 30.72-30.72 30.72zM542.106 247.475c-0.205 1.024-0.41 2.048-0.819 2.867-0.205 1.024-0.614 1.843-1.024 2.867s-0.819 1.843-1.229 2.662c-0.41 0.819-1.024 1.843-1.638 2.662s-1.229 1.638-1.843 2.458c-0.614 0.819-1.229 1.638-2.048 2.253-6.349 6.349-15.565 9.83-24.781 8.806-1.024-0.205-2.048-0.205-3.072-0.41s-2.048-0.41-2.867-0.819c-1.024-0.41-1.843-0.614-2.867-1.024-0.819-0.41-1.843-0.819-2.662-1.229s-1.843-1.024-2.662-1.638c-0.819-0.614-1.638-1.229-2.458-1.843s-1.638-1.434-2.253-2.048c-0.614-0.819-1.434-1.434-2.048-2.253s-1.229-1.638-1.843-2.458c-0.614-0.819-1.024-1.638-1.638-2.662-0.41-0.819-0.819-1.843-1.229-2.662s-0.819-1.843-1.024-2.867c-0.205-1.024-0.614-2.048-0.819-2.867-0.205-1.024-0.41-2.048-0.41-3.072s-0.205-2.048-0.205-3.072 0-2.048 0.205-3.072c0-1.024 0.205-2.048 0.41-3.072s0.41-2.048 0.819-2.867c0.205-1.024 0.614-1.843 1.024-2.867 0.41-0.819 0.819-1.843 1.229-2.662s1.024-1.843 1.638-2.662c0.614-0.819 1.229-1.638 1.843-2.458s1.229-1.638 2.048-2.253c0.819-0.819 1.434-1.434 2.253-2.048s1.638-1.229 2.458-1.843c0.819-0.614 1.638-1.024 2.662-1.638 0.819-0.41 1.843-0.819 2.662-1.229 1.024-0.41 1.843-0.819 2.867-1.024s2.048-0.614 2.867-0.819c1.024-0.205 2.048-0.41 3.072-0.41s2.048-0.205 3.072-0.205 2.048 0 3.072 0.205c1.024 0 2.048 0.205 3.072 0.41s2.048 0.41 2.867 0.819c1.024 0.205 1.843 0.614 2.867 1.024 0.819 0.41 1.843 0.819 2.662 1.229s1.843 1.024 2.662 1.638c0.819 0.614 1.638 1.229 2.458 1.843s1.638 1.229 2.253 2.048c0.614 0.614 1.434 1.434 2.048 2.253s1.229 1.638 1.843 2.458c0.614 0.819 1.024 1.638 1.638 2.662 0.41 0.819 0.819 1.843 1.229 2.662 0.41 1.024 0.819 1.843 1.024 2.867s0.614 1.843 0.819 2.867c0.205 1.024 0.41 2.048 0.41 3.072s0.205 2.048 0.205 3.072 0 2.048-0.205 3.072c-0.205 1.434-0.41 2.458-0.614 3.277zM943.309 87.936c-42.598 28.467-56.32 80.282-60.826 114.483 45.261 72.294 69.222 155.034 69.222 240.435 0 120.627-46.899 234.086-132.301 319.488s-198.861 132.301-319.488 132.301c-120.627 0-234.291-46.899-319.488-132.301-85.402-85.402-132.301-198.861-132.301-319.488s46.899-234.291 132.301-319.488c85.402-85.402 198.861-132.301 319.488-132.301 49.562 0 98.509 7.987 145.408 23.962 69.632-43.622 183.91-49.562 241.050-49.562 19.661 0 32.563 0.614 34.611 0.819 0.819 0 1.434 0.205 2.048 0.205 1.229 0.205 12.902 1.843 25.19 6.144 29.286 10.24 38.912 27.443 41.779 40.141 9.216 37.888-32.768 65.946-46.694 75.162zM916.070 27.11c-50.381-2.662-189.030 0.205-246.989 45.875-5.53 4.301-12.288 6.554-19.046 6.554-3.686 0-7.373-0.614-10.854-2.048-44.646-16.794-91.341-25.395-139.059-25.395-104.243 0-202.342 40.55-276.070 114.278s-114.278 171.827-114.278 276.070c0 104.243 40.55 202.342 114.278 276.070s171.827 114.278 276.070 114.278c215.245 0 390.349-175.104 390.349-390.349 0-77.005-22.528-151.552-65.126-215.859-3.891-5.734-5.53-12.698-4.915-19.661 9.011-102.4 59.597-150.733 88.883-170.394 0 0 0 0 0 0 4.915-3.277 8.806-6.144 11.878-8.602-1.843-0.205-3.482-0.41-5.12-0.819z" />
<glyph unicode="&#xe921;" glyph-name="trend-no-change" d="M978.632 458.276l-257.17 257.17c-23.698 23.698-61.733 23.698-85.138 0s-23.698-61.733 0-85.138l153.893-153.893h-556.178l153.893 153.893c23.698 23.698 23.698 61.733 0 85.138-11.995 11.41-27.209 17.554-43.008 17.554-15.214 0-30.72-6.144-42.423-16.969l-257.17-257.17c-23.698-23.698-23.698-61.733 0-85.138l257.17-257.17c23.698-23.698 61.733-23.698 85.138 0 23.698 23.698 23.698 61.733 0 85.138l-153.893 153.893h556.178l-153.6-153.893c-23.698-23.698-23.698-61.733 0-85.138 11.995-11.41 27.209-17.554 43.008-17.554 15.214 0 30.72 6.144 42.423 16.969l257.17 257.17c23.406 23.698 23.406 61.733-0.293 85.138z" />
<glyph unicode="&#xe922;" glyph-name="trend-declining" d="M569.307 302.446l157.111 157.111c23.698 23.698 61.733 23.698 85.138 0 11.41-11.995 17.554-27.209 17.554-43.008 0-15.214-6.144-30.72-16.969-42.423l-257.17-257.17c-23.698-23.698-61.733-23.698-85.138 0l-257.17 257.17c-23.698 23.698-23.698 61.733 0 85.138s61.733 23.698 85.138 0l150.967-150.967v364.251c0 33.353 27.209 60.27 60.27 60.27s60.27-27.209 60.27-60.27v-370.103z" />
<glyph unicode="&#xe923;" glyph-name="trend-rising" d="M569.307 529.554l157.111-157.111c23.698-23.698 61.733-23.698 85.138 0 11.41 11.995 17.554 27.209 17.554 43.008 0 15.214-6.144 30.72-16.969 42.423l-257.17 257.17c-23.698 23.698-61.733 23.698-85.138 0l-257.17-257.17c-23.698-23.698-23.698-61.733 0-85.138s61.733-23.698 85.138 0l150.967 150.967v-364.251c0-33.353 27.209-60.27 60.27-60.27s60.27 27.209 60.27 60.27v370.103z" />
<glyph unicode="&#xe924;" glyph-name="plant" horiz-adv-x="1331" d="M928 358.4c-140.8 0-256 108.8-256 249.6v12.8c0 140.8 115.2 256 256 256h256v-262.4c0-140.8-115.2-256-256-256zM928 825.6c-115.2 0-204.8-89.6-204.8-204.8v-12.8c0-108.8 89.6-198.4 204.8-198.4s204.8 89.6 204.8 204.8v211.2h-204.8zM352 294.4c-108.8 0-198.4 76.8-211.2 185.6l-19.2 204.8 204.8 19.2c51.2 6.4 102.4-6.4 147.2-38.4 38.4-38.4 70.4-89.6 76.8-147.2v0c6.4-115.2-70.4-211.2-179.2-224-6.4 0-12.8 0-19.2 0zM172.8 633.6l19.2-153.6c12.8-83.2 89.6-140.8 172.8-134.4 83.2 12.8 140.8 83.2 134.4 172.8-6.4 38.4-25.6 76.8-57.6 102.4s-70.4 38.4-108.8 32l-160-19.2zM691.2 44.8c-12.8 0-25.6 6.4-25.6 19.2-32 179.2-147.2 332.8-320 416-12.8 6.4-19.2 25.6-12.8 38.4s19.2 19.2 32 12.8c147.2-70.4 256-192 313.6-332.8 25.6 140.8 89.6 352 249.6 454.4 19.2 6.4 32 0 38.4-12.8s6.4-25.6-6.4-32c-217.6-134.4-243.2-531.2-243.2-537.6 0-12.8-12.8-25.6-25.6-25.6 0 0 0 0 0 0z" />
<glyph unicode="&#xe925;" glyph-name="x" horiz-adv-x="1051" d="M212.977 902.225c-41.339-4.344-78.167-22.924-107.17-53.676-27.095-28.836-42.384-62.009-46.554-101.789-2.256-20.844-2.256-576.509 0-597.527 4.692-43.77 22.062-79.205 53.676-108.911 29.531-27.618 62.357-42.558 103.522-46.728 11.292-1.044 124.54-1.567 321.344-1.044 336.98 0.522 311.792-0.348 343.058 11.814 58.535 22.584 101.267 76.775 109.433 138.958 1.392 10.248 1.738 104.393 1.392 314.222l-0.522 299.63-3.822 13.896c-19.625 73.127-77.819 123.329-151.643 131.142-19.279 1.909-603.604 1.909-622.715 0zM486.382 622.742l66.701-97.097 163.624 188.986h27.444c14.94 0 27.269-0.696 27.269-1.567s-5.73-7.992-12.677-15.977c-6.948-7.992-50.376-58.187-96.4-111.341l-83.897-96.923 106.133-152.854c58.187-84.245 105.959-153.376 105.959-153.898 0-0.348-36.481-0.696-81.119-0.696l-81.293 0.174-70.349 101.093-70.349 101.267-86.675-101.267-86.849-101.267h-57.324l4.518 4.692c2.43 2.778 48.635 56.628 102.659 119.855l98.141 114.814-102.311 149.032c-56.279 81.815-102.311 149.206-102.311 149.554 0 0.174 36.481 0.522 81.293 0.522h81.119l66.701-97.097zM385.463 608.324c83.027-121.24 138.089-200.969 204.443-296.33l64.272-92.412h58.361l-3.3 4.866c-12.161 17.196-212.955 307.622-258.117 373.453l-55.409 80.249h-58.361l48.113-69.827z" />
<glyph unicode="&#xea10;" glyph-name="arrow-right-2-center" d="M380.489 155.684c-7.607 0-14.921 2.926-20.773 8.485-11.41 11.41-11.41 29.842 0 41.253l242.542 242.542-242.542 242.542c-11.41 11.41-11.41 29.842 0 41.253s29.842 11.41 41.253 0l263.314-263.314c11.41-11.41 11.41-29.842 0-41.253l-263.314-263.314c-5.559-5.266-12.873-8.192-20.48-8.192z" />
<glyph unicode="&#xea23;" glyph-name="arrow-down" d="M116.191 607.797c0 19.595 7.534 38.447 21.859 53.515 29.392 29.392 76.876 29.392 106.283 0l267.573-267.573 267.573 267.573c29.392 29.392 76.876 29.392 106.283 0s29.392-76.876 0-106.283l-321.087-320.341c-29.392-29.392-76.876-29.392-106.283 0l-321.087 320.341c-13.564 14.325-21.098 33.159-21.098 52.754z" />
</font>
</defs>
</svg>
